<svg xmlns="http://www.w3.org/2000/svg" viewBox="0 0 984 536" width="984" height="536">
  <!-- Tool/Wrench Icon -->
  <g fill="#8BC34A">
    <!-- Wrench handle -->
    <path d="M175 249h-40v8h40v80h8v-80h40v-8h-40v-40h-8v40z"/>
    <!-- Wrench head -->
    <path d="M111 249v8h48v40h8v-40h8v40h8v-40h8v40h8v-40h48v-8H111z"/>
    <!-- Wings/leaves -->
    <path d="M175 217l-32-32-8 8 32 32h8z"/>
    <path d="M209 217h8l32-32-8-8-32 32z"/>
    <path d="M175 281l-32 32 8 8 32-32h-8z"/>
    <path d="M217 281l32 32 8-8-32-32h-8z"/>
  </g>
  
  <!-- "Sidekick" Text -->
  <g>
    <!-- S -->
    <path fill="#8BC34A" d="M365 301h40v16h-40v16h56v8h-64v-80h64v8h-56v16h40v16z"/>
    <!-- i -->
    <path fill="#9CCC65" d="M441 301h8v40h-8v-40zm0-24h8v8h-8v-8z"/>
    <!-- d -->
    <path fill="#AED581" d="M465 277v64h-8v-8h-16c-13 0-24-11-24-24s11-24 24-24h16v-8h8zm-8 16h-16c-9 0-16 7-16 16s7 16 16 16h16v-32z"/>
    <!-- e -->
    <path fill="#C5E1A5" d="M489 309v8h-32c0 9 7 16 16 16h16v8h-16c-13 0-24-11-24-24s11-24 24-24 24 11 24 16zm-8 0c0-9-7-16-16-16s-16 7-16 16h32z"/>
    <!-- k -->
    <path fill="#DCEDC8" d="M513 277v64h-8v-28l-20 20-6-6 18-18-18-18 6-6 20 20v-28h8z"/>
    <!-- i -->
    <path fill="#F1F8E9" d="M537 301h8v40h-8v-40zm0-24h8v8h-8v-8z"/>
    <!-- c -->
    <path fill="#FFEB3B" d="M561 317c0-13 11-24 24-24v8c-9 0-16 7-16 16s7 16 16 16v8c-13 0-24-11-24-24z"/>
    <!-- k -->
    <path fill="#FFC107" d="M609 277v64h-8v-28l-20 20-6-6 18-18-18-18 6-6 20 20v-28h8z"/>
  </g>
</svg>